<svg width="96" height="62" viewBox="0 0 96 62" fill="none" xmlns="http://www.w3.org/2000/svg">
<path d="M8.6 0.00429344L6.784 0.0162945C6.184 0.0362945 5.572 0.0682943 4.976 0.176294C4.07528 0.318636 3.22122 0.6728 2.4841 1.20965C1.74697 1.7465 1.14784 2.45069 0.736 3.26429C0.456 3.81629 0.28 4.3763 0.176 4.98429C0.064 5.57629 0.028 6.18429 0.016 6.78429L0 7.62029V53.8483C0 54.1256 0.004 54.4016 0.012 54.6763C0.028 55.2763 0.064 55.8883 0.172 56.4843C0.276 57.0816 0.465333 57.6536 0.74 58.2003C1.29248 59.2856 2.17473 60.1678 3.26 60.7203C3.812 61.0003 4.372 61.1803 4.98 61.2883C5.572 61.3963 6.18 61.4323 6.78 61.4483L7.612 61.4603H88.388L89.216 61.4483C89.816 61.4323 90.428 61.3963 91.024 61.2883C91.62 61.1803 92.188 61.0043 92.736 60.7243C93.825 60.1737 94.7094 59.2893 95.26 58.2003C95.54 57.6483 95.72 57.0883 95.824 56.4803C95.932 55.8883 95.968 55.2803 95.984 54.6803C95.992 54.403 95.996 54.1256 95.996 53.8483L96 52.8643V7.61629C96 7.33896 95.9947 7.06296 95.984 6.78829C95.9764 6.18245 95.9229 5.57806 95.824 4.98029C95.6303 3.77669 95.0623 2.66472 94.2006 1.80233C93.3389 0.939948 92.2274 0.370996 91.024 0.176294C90.4262 0.0773938 89.8218 0.0239076 89.216 0.0162945C88.6122 -0.000143602 88.008 -0.00414549 87.404 0.00429344H8.6ZM8.6 2.05229H88.368C88.6293 2.05229 88.892 2.05629 89.156 2.06429C89.616 2.08029 90.156 2.10429 90.656 2.19229C91.092 2.27229 91.456 2.39229 91.804 2.56829C92.5052 2.92515 93.0751 3.49513 93.432 4.19629C93.6151 4.55897 93.7419 4.94743 93.808 5.34829C93.896 5.84029 93.92 6.38029 93.932 6.84429C93.94 7.10296 93.944 7.36563 93.944 7.63229V53.8403C93.944 54.099 93.94 54.3603 93.932 54.6243C93.92 55.0843 93.896 55.6243 93.804 56.1243C93.7165 56.7126 93.4892 57.2713 93.1412 57.7536C92.7932 58.2359 92.3347 58.6278 91.804 58.8963C91.4438 59.0786 91.0581 59.2054 90.66 59.2723C90.1658 59.346 89.6675 59.3887 89.168 59.4003L88.368 59.4123H7.624C7.35733 59.4123 7.096 59.4083 6.84 59.4003C6.33781 59.3891 5.83683 59.3463 5.34 59.2723C4.904 59.1923 4.54 59.0723 4.188 58.8963C3.48325 58.5458 2.9128 57.9739 2.564 57.2683C2.38089 56.9056 2.2541 56.5172 2.188 56.1163C2.1081 55.6229 2.06532 55.1241 2.06 54.6243L2.052 53.8363V7.62829L2.06 6.84029C2.076 6.38429 2.1 5.84829 2.188 5.34029C2.268 4.90829 2.388 4.54429 2.564 4.19229C2.92154 3.49261 3.49144 2.92411 4.192 2.56829C4.55343 2.38557 4.94051 2.25879 5.34 2.19229C5.84 2.10429 6.38 2.07629 6.84 2.06429L7.624 2.05229H8.6ZM27.44 16.8523C26.24 16.9163 24.768 17.6483 23.92 18.6763C23.156 19.5563 22.48 20.9963 22.656 22.3483C24.008 22.4683 25.356 21.6723 26.208 20.6763C27.028 19.6443 27.588 18.2643 27.44 16.8563V16.8523ZM36.268 18.5323V40.5043H39.676V32.9963H44.396C48.708 32.9963 51.736 30.0403 51.736 25.7483C51.736 21.4683 48.768 18.5283 44.504 18.5283L36.268 18.5323ZM39.676 21.4083H43.604C46.56 21.4083 48.248 22.9923 48.248 25.7643C48.248 28.5323 46.56 30.1323 43.592 30.1323H39.676V21.4083ZM27.06 22.6083C25.26 22.6483 23.74 23.7283 22.86 23.7283C21.92 23.7283 20.488 22.6723 18.936 22.7003C17.9268 22.7271 16.9421 23.0168 16.0792 23.5409C15.2163 24.0649 14.5051 24.8051 14.016 25.6883C11.908 29.3203 13.46 34.7083 15.512 37.6683C16.508 39.1323 17.708 40.7443 19.288 40.6843C20.78 40.6283 21.368 39.7163 23.18 39.7163C24.996 39.7163 25.524 40.6843 27.1 40.6563C28.74 40.6283 29.768 39.1923 30.76 37.7243C31.904 36.0563 32.372 34.4443 32.4 34.3603C32.372 34.3283 29.24 33.1283 29.212 29.5243C29.18 26.5083 31.672 25.0723 31.788 24.9843C30.38 22.9043 28.188 22.6723 27.428 22.6123L27.06 22.6083ZM59.876 24.1963C55.916 24.1963 53.452 26.3283 53.268 29.2203H56.376C56.664 27.7883 57.852 26.8763 59.756 26.8763C61.764 26.8763 62.968 27.9403 62.968 29.7203V30.9563L58.58 31.2123C54.776 31.4283 52.628 33.1483 52.628 35.9483C52.628 38.8283 54.82 40.7763 57.956 40.7763C60.06 40.7763 62.084 39.6523 63.012 37.8683H63.088V40.5043H66.24V29.4643C66.24 26.2523 63.76 24.1963 59.876 24.1963ZM67.636 24.4843L73.42 40.5203C73.42 40.5323 73.128 41.4803 73.128 41.5083C72.628 43.1483 71.808 43.7923 70.284 43.7923C70.008 43.7923 69.46 43.7923 69.216 43.7323V46.3963C69.456 46.4403 70.284 46.4723 70.556 46.4723C73.876 46.4723 75.46 45.2243 76.828 41.3403L82.828 24.4843H79.356L75.308 37.5203H75.248L71.196 24.4803L67.636 24.4843ZM62.968 33.2403V34.5043C62.968 36.5883 61.168 38.1723 58.872 38.1723C57.104 38.1723 55.948 37.2603 55.948 35.8563C55.948 34.4883 57.06 33.6163 59.024 33.4843L62.968 33.2403Z" fill="#1A1F71"/>
</svg>
