<svg width="94" height="36" viewBox="0 0 94 36" fill="none" xmlns="http://www.w3.org/2000/svg">
<path d="M94.0048 7.83471L81.7348 35.2504H77.9396L82.4986 25.6565L74.4205 7.83177H78.4125L84.2582 21.4941H84.3345L89.9951 7.83177L94.0048 7.83471ZM43.0274 16.3123V27.419H39.1705V0.00333607H49.3753C51.7973 -0.0601916 54.1552 0.785527 55.9847 2.3739C57.7913 3.85734 58.7842 5.95471 58.7548 8.17252C58.7672 9.28864 58.5241 10.3928 58.0439 11.4004C57.5638 12.4081 56.8594 13.2924 55.9847 13.9858C54.2105 15.5456 52.0073 16.3123 49.3753 16.3123H43.0274ZM43.0127 3.3844V12.946H49.4694C50.875 12.9964 52.2438 12.4908 53.2793 11.5389C54.2751 10.6518 54.8244 9.44152 54.8244 8.18721C54.8244 6.91821 54.2722 5.70796 53.2793 4.83552C52.7721 4.35302 52.1742 3.97602 51.5201 3.72642C50.8661 3.47681 50.169 3.35956 49.4694 3.38146L43.0127 3.3844ZM66.4804 7.83471C68.9303 7.83667 70.8681 8.52013 72.2937 9.88509C74.4322 11.9325 74.4205 13.1134 74.4205 15.484V26.8198H71.2392V24.2642H71.1011C69.7263 26.3635 67.9002 27.4141 65.6227 27.4161C63.6633 27.4161 62.0418 26.8198 60.7258 25.6095C60.0918 25.0467 59.5871 24.3534 59.2463 23.577C58.9056 22.8007 58.7369 21.9599 58.7518 21.1122C58.7499 19.2146 59.4431 17.6998 60.8316 16.5679C62.2122 15.4477 64.0579 14.8867 66.3688 14.8847C68.3428 14.8867 69.9643 15.2636 71.2333 16.0156V15.2196C71.2374 14.6417 71.1179 14.0696 70.8828 13.5417C70.6477 13.0138 70.3025 12.5423 69.8703 12.1587C69 11.3432 67.8492 10.8941 66.6567 10.9044C64.806 10.9044 63.3373 11.7152 62.2504 13.3367L59.3276 11.439C60.9354 9.03419 63.3167 7.8308 66.4716 7.82884L66.4804 7.83471ZM62.1828 21.1915C62.1761 21.6269 62.2723 22.0577 62.4638 22.4487C62.6552 22.8398 62.9364 23.18 63.2844 23.4416C64.0188 24.038 64.9382 24.3611 65.8694 24.3435C67.2618 24.3435 68.6072 23.7618 69.603 22.7366C70.6575 21.7585 71.2568 20.3808 71.2568 18.9414C70.2189 18.0837 68.7756 17.6548 66.9269 17.6548C65.5639 17.6548 64.4477 17.9926 63.5458 18.6653C62.644 19.3527 62.1828 20.184 62.1828 21.1915ZM15.9936 0.00333607C19.9483 -0.0425889 23.7723 1.41831 26.689 4.0894L22.13 8.55734C20.4627 7.01538 18.2643 6.17667 15.9936 6.21615C14.0118 6.22715 12.0825 6.85465 10.4734 8.01161C8.8643 9.16856 7.65515 10.7976 7.01367 12.6728C6.34083 14.6156 6.34083 16.7283 7.01367 18.6711C7.65515 20.5463 8.8643 22.1754 10.4734 23.3323C12.0825 24.4893 14.0118 25.1168 15.9936 25.1278C18.1497 25.1278 20.0033 24.5932 21.4397 23.6443C22.2666 23.1067 22.9752 22.4061 23.5222 21.5854C24.0691 20.7646 24.4431 19.841 24.621 18.8709H15.9907V12.8431H31.06C31.2441 13.8967 31.3362 14.9572 31.3362 16.0245C31.3362 20.7979 29.5913 24.837 26.5774 27.56C23.9307 29.9482 20.3059 31.3376 15.9907 31.3376C13.0452 31.353 10.1526 30.5554 7.63117 29.0327C5.10977 27.5101 3.05733 25.3213 1.69973 22.7073C0.582634 20.5293 0 18.1168 0 15.669C0 13.2213 0.582634 10.8087 1.69973 8.63077C3.05596 6.01945 5.10565 3.83242 7.62365 2.3099C10.1416 0.787391 13.0306 -0.0117001 15.973 0.000400186L15.9936 0.00333607Z" fill="#1A1F71"/>
</svg>
