<svg width="50" height="50" viewBox="0 0 50 50" fill="none" xmlns="http://www.w3.org/2000/svg">
<path d="M18.4922 36.9844C13.3239 36.9844 8.95021 35.1939 5.37127 31.6131C1.79232 28.0322 0.00189814 23.6586 1.50526e-06 18.4922C-0.00189513 13.3257 1.78853 8.95211 5.37127 5.37127C8.95401 1.79042 13.3276 0 18.4922 0C23.6567 0 28.0313 1.79042 31.6159 5.37127C35.2006 8.95211 36.99 13.3257 36.9844 18.4922C36.9844 20.5785 36.6524 22.5462 35.9886 24.3954C35.3248 26.2447 34.4239 27.8805 33.2859 29.303L49.2176 45.2347C49.7392 45.7563 50 46.4201 50 47.2262C50 48.0322 49.7392 48.6961 49.2176 49.2176C48.6961 49.7392 48.0322 50 47.2262 50C46.4201 50 45.7563 49.7392 45.2347 49.2176L29.303 33.2859C27.8805 34.4239 26.2447 35.3248 24.3955 35.9886C22.5462 36.6524 20.5785 36.9844 18.4922 36.9844ZM18.4922 31.2945C22.0484 31.2945 25.0716 30.0503 27.5619 27.5619C30.0522 25.0735 31.2964 22.0503 31.2945 18.4922C31.2926 14.9341 30.0484 11.9118 27.5619 9.42532C25.0754 6.93883 22.0522 5.69369 18.4922 5.6899C14.9322 5.68611 11.9099 6.93125 9.42532 9.42532C6.94073 11.9194 5.69559 14.9417 5.6899 18.4922C5.68421 22.0427 6.92935 25.0659 9.42532 27.5619C11.9213 30.0578 14.9436 31.302 18.4922 31.2945Z" fill="black"/>
</svg>
