<svg width="51" height="50" viewBox="0 0 51 50" fill="none" xmlns="http://www.w3.org/2000/svg">
<path d="M48.6934 0.0519665L0.700063 15.9296C0.503557 15.9944 0.331432 16.1175 0.206559 16.2825C0.0816852 16.4475 0.00997537 16.6466 0.000956381 16.8533C-0.00806261 17.0601 0.0460366 17.2647 0.156066 17.4399C0.266096 17.6152 0.426846 17.7528 0.616958 17.8345L18.2227 25.4293C18.3149 25.4695 18.416 25.4851 18.5161 25.4746C18.6162 25.4641 18.7118 25.4279 18.7938 25.3694L36.0994 13.0643C36.6362 12.6869 37.293 13.3468 36.9131 13.8819L24.5276 31.1303C24.4697 31.2119 24.4339 31.307 24.4234 31.4065C24.413 31.5059 24.4283 31.6064 24.468 31.6982L31.9772 49.3398C32.0577 49.5304 32.1943 49.692 32.3689 49.8031C32.5434 49.9141 32.7476 49.9695 32.9544 49.9618C33.1611 49.954 33.3606 49.8836 33.5264 49.7597C33.6922 49.6359 33.8163 49.4646 33.8824 49.2685L49.9838 1.34547C50.0443 1.16585 50.0537 0.972893 50.0107 0.788269C49.9677 0.603645 49.874 0.434666 49.7403 0.300309C49.6066 0.165952 49.4381 0.0715381 49.2536 0.0276705C49.0692 -0.016197 48.8733 -0.00778791 48.6934 0.0519665Z" fill="#372607"/>
</svg>
