<svg width="38" height="48" viewBox="0 0 38 48" fill="none" xmlns="http://www.w3.org/2000/svg">
<path d="M19 42.4054L7.6 47.494C5.79048 48.295 4.07143 48.1424 2.44286 47.0361C0.814286 45.9298 0 44.3626 0 42.3347V5.65405C0 4.09919 0.531999 2.7686 1.596 1.66229C2.66 0.555982 3.93752 0.00188468 5.42857 0H32.5714C34.0643 0 35.3427 0.554097 36.4067 1.66229C37.4707 2.77049 38.0018 4.10107 38 5.65405V42.3347C38 44.3608 37.1857 45.9279 35.5571 47.0361C33.9286 48.1443 32.2095 48.2969 30.4 47.494L19 42.4054ZM19 36.1859L32.5714 42.264V5.65405H5.42857V42.264L19 36.1859ZM19 5.65405H5.42857H32.5714H19Z" fill="#372607"/>
</svg>
