<svg width="50" height="50" viewBox="0 0 50 50" fill="none" xmlns="http://www.w3.org/2000/svg">
<path d="M40 40C37.225 40 35 42.225 35 45C35 46.3261 35.5268 47.5979 36.4645 48.5355C37.4021 49.4732 38.6739 50 40 50C41.3261 50 42.5979 49.4732 43.5355 48.5355C44.4732 47.5979 45 46.3261 45 45C45 43.6739 44.4732 42.4021 43.5355 41.4645C42.5979 40.5268 41.3261 40 40 40ZM0 0V5H5L14 23.975L10.6 30.1C10.225 30.8 10 31.625 10 32.5C10 33.8261 10.5268 35.0979 11.4645 36.0355C12.4021 36.9732 13.6739 37.5 15 37.5H45V32.5H16.05C15.8842 32.5 15.7253 32.4342 15.6081 32.3169C15.4908 32.1997 15.425 32.0408 15.425 31.875C15.425 31.75 15.45 31.65 15.5 31.575L17.75 27.5H36.375C38.25 27.5 39.9 26.45 40.75 24.925L49.7 8.75C49.875 8.35 50 7.925 50 7.5C50 6.83696 49.7366 6.20107 49.2678 5.73223C48.7989 5.26339 48.163 5 47.5 5H10.525L8.175 0M15 40C12.225 40 10 42.225 10 45C10 46.3261 10.5268 47.5979 11.4645 48.5355C12.4021 49.4732 13.6739 50 15 50C16.3261 50 17.5979 49.4732 18.5355 48.5355C19.4732 47.5979 20 46.3261 20 45C20 43.6739 19.4732 42.4021 18.5355 41.4645C17.5979 40.5268 16.3261 40 15 40Z" fill="black"/>
</svg>
