<?xml version="1.0" encoding="UTF-8" standalone="no"?>
<svg
   width="50"
   height="50"
   viewBox="0 0 50 50"
   fill="none"
   version="1.1"
   id="svg1"
   sodipodi:docname="home.svg"
   inkscape:version="1.4 (86a8ad7, 2024-10-11)"
   xmlns:inkscape="http://www.inkscape.org/namespaces/inkscape"
   xmlns:sodipodi="http://sodipodi.sourceforge.net/DTD/sodipodi-0.dtd"
   xmlns="http://www.w3.org/2000/svg"
   xmlns:svg="http://www.w3.org/2000/svg">
  <defs
     id="defs1" />
  <sodipodi:namedview
     id="namedview1"
     pagecolor="#ffffff"
     bordercolor="#000000"
     borderopacity="0.25"
     inkscape:showpageshadow="2"
     inkscape:pageopacity="0.0"
     inkscape:pagecheckerboard="0"
     inkscape:deskcolor="#d1d1d1"
     inkscape:zoom="17.02"
     inkscape:cx="25.029377"
     inkscape:cy="25"
     inkscape:window-width="1920"
     inkscape:window-height="1111"
     inkscape:window-x="-9"
     inkscape:window-y="-9"
     inkscape:window-maximized="1"
     inkscape:current-layer="svg1" />
  <path
     d="M0 46.7501V18.5018C0 17.6698 0.204762 16.8822 0.614285 16.1391C1.02381 15.396 1.58809 14.7839 2.30714 14.3029L21.5393 1.04973C22.5464 0.349909 23.6964 0 24.9893 0C26.2821 0 27.4393 0.349909 28.4607 1.04973L47.6929 14.2996C48.4143 14.7806 48.9786 15.3938 49.3857 16.1391C49.7952 16.8822 50 17.6698 50 18.5018V46.7501C50 47.6211 49.644 48.3805 48.9321 49.0283C48.2202 49.6761 47.3857 50 46.4286 50H34.3429C33.5238 50 32.8381 49.7487 32.2857 49.246C31.7333 48.7412 31.4571 48.1172 31.4571 47.3741V31.8752C31.4571 31.1321 31.181 30.5092 30.6286 30.0065C30.0738 29.5017 29.3881 29.2493 28.5714 29.2493H21.4286C20.6119 29.2493 19.9274 29.5017 19.375 30.0065C18.8202 30.5092 18.5429 31.1321 18.5429 31.8752V47.3773C18.5429 48.1205 18.2667 48.7434 17.7143 49.246C17.1619 49.7487 16.4774 50 15.6607 50H3.57143C2.61429 50 1.77976 49.6761 1.06786 49.0283C0.355952 48.3805 0 47.6211 0 46.7501Z"
     fill="black"
     id="path1"
     style="fill:#3d2500;fill-opacity:1" />
</svg>
