<svg width="128" height="57" viewBox="0 0 128 57" fill="none" xmlns="http://www.w3.org/2000/svg">
<path d="M48.5985 0.73L31.84 40.709H20.907L12.66 8.802C12.16 6.8415 11.7255 6.12 10.204 5.291C7.717 3.94 3.61 2.6765 0 1.8905L0.2435 0.73H17.8455C20.0855 0.73 22.1025 2.2215 22.6155 4.804L26.973 27.9405L37.731 0.73H48.5985ZM63.3785 0.73L54.827 40.709H44.483L53.0355 0.73H63.3785ZM91.4365 27.656C91.4795 17.1065 76.8495 16.521 76.945 11.8075C76.98 10.3745 78.345 8.849 81.333 8.459C82.813 8.2675 86.902 8.115 91.5335 10.249L93.3455 1.766C90.857 0.866 87.6545 0 83.671 0C73.446 0 66.2535 5.431 66.196 13.214C66.129 18.971 71.3335 22.1795 75.2475 24.097C79.279 26.055 80.631 27.3135 80.6125 29.0635C80.5835 31.746 77.3925 32.9335 74.426 32.9775C69.224 33.06 66.2085 31.5715 63.803 30.451L61.9255 39.215C64.3455 40.324 68.8055 41.2875 73.425 41.3365C84.295 41.3365 91.4045 35.9675 91.4365 27.656ZM118.437 40.7095H128L119.645 0.73H110.822C108.832 0.73 107.159 1.885 106.417 3.6605L90.897 40.709H101.758L103.913 34.737H117.183L118.437 40.7095ZM106.892 26.545L112.338 11.5315L115.466 26.545H106.892ZM76.6165 51.714H72.4135V55.6255H77.1145V56.8015H70.9975V45.95H76.8735V47.126H72.4135V50.5545H76.616L76.6165 51.714ZM79.286 45.371H80.702V56.801H79.286V45.371ZM84.275 53.1625C84.307 55.079 85.515 55.8675 86.947 55.8675C87.962 55.8675 88.5895 55.6905 89.1055 55.4655L89.3625 56.48C88.8635 56.705 87.9945 56.9785 86.754 56.9785C84.356 56.9785 82.9235 55.385 82.9235 53.034C82.9235 50.684 84.307 48.848 86.5775 48.848C89.1375 48.848 89.7975 51.0705 89.7975 52.503C89.7975 52.7925 89.781 53.0015 89.7485 53.163L84.275 53.1625ZM88.4285 52.1485C88.445 51.2635 88.0585 49.8625 86.4645 49.8625C85.0155 49.8625 84.4035 51.1665 84.2905 52.1485H88.4285ZM97.5055 56.5275C97.1355 56.705 96.314 56.979 95.268 56.979C92.9175 56.979 91.388 55.385 91.388 53.002C91.388 50.603 93.0295 48.8485 95.5735 48.8485C96.4105 48.8485 97.151 49.057 97.5375 49.267L97.2165 50.3455C96.877 50.1685 96.346 49.9745 95.5735 49.9745C93.786 49.9745 92.821 51.311 92.821 52.922C92.821 54.7245 93.98 55.8355 95.5255 55.8355C96.3305 55.8355 96.8615 55.6425 97.264 55.4655L97.5055 56.5275ZM101.479 47.1415V49.009H103.507V50.087H101.479V54.2895C101.479 55.2565 101.754 55.803 102.542 55.803C102.928 55.803 103.154 55.7715 103.364 55.706L103.428 56.786C103.154 56.882 102.719 56.9785 102.172 56.9785C101.511 56.9785 100.98 56.753 100.643 56.3835C100.256 55.948 100.095 55.2565 100.095 54.3385V50.087H98.887V49.009H100.095V47.56L101.479 47.1415ZM105.486 51.4405C105.486 50.5225 105.469 49.734 105.422 49.009H106.661L106.727 50.554H106.773C107.129 49.5085 107.997 48.848 108.947 48.848C109.092 48.848 109.205 48.8645 109.334 48.88V50.217C109.189 50.184 109.045 50.184 108.85 50.184C107.853 50.184 107.143 50.9245 106.951 51.988C106.918 52.2064 106.901 52.4271 106.902 52.648V56.802H105.486V51.4405ZM118.041 52.8405C118.041 55.7225 116.028 56.9785 114.161 56.9785C112.068 56.9785 110.426 55.4325 110.426 52.97C110.426 50.3775 112.149 48.8485 114.29 48.8485C116.528 48.8485 118.041 50.473 118.041 52.8405ZM111.875 52.922C111.875 54.6285 112.841 55.917 114.226 55.917C115.578 55.917 116.592 54.644 116.592 52.8895C116.592 51.5695 115.932 49.9105 114.257 49.9105C112.6 49.9105 111.875 51.457 111.875 52.922ZM120.213 51.1185C120.213 50.298 120.195 49.6535 120.147 49.01H121.404L121.484 50.298H121.516C121.902 49.573 122.804 48.849 124.092 48.849C125.17 48.849 126.845 49.493 126.845 52.1645V56.802H125.428V52.31C125.428 51.055 124.962 50.0075 123.626 50.0075C122.708 50.0075 121.982 50.668 121.726 51.4565C121.661 51.634 121.629 51.875 121.629 52.117V56.802H120.213V51.1185Z" fill="#1A1F71"/>
</svg>
